<svg width="77" height="23" viewBox="0 0 77 23" fill="none" xmlns="http://www.w3.org/2000/svg">
<path d="M33.73 12.065C33.62 11.905 33.465 11.775 33.265 11.675C33.065 11.565 32.85 11.51 32.62 11.51C32.05 11.51 31.605 11.68 31.285 12.02C30.975 12.36 30.82 12.805 30.82 13.355C30.82 13.905 30.975 14.35 31.285 14.69C31.605 15.03 32.05 15.2 32.62 15.2C32.87 15.2 33.085 15.145 33.265 15.035C33.445 14.925 33.6 14.795 33.73 14.645L35.215 16.205C34.865 16.565 34.45 16.82 33.97 16.97C33.5 17.11 33.05 17.18 32.62 17.18C32.06 17.18 31.53 17.09 31.03 16.91C30.54 16.73 30.11 16.475 29.74 16.145C29.38 15.805 29.095 15.4 28.885 14.93C28.675 14.46 28.57 13.935 28.57 13.355C28.57 12.775 28.675 12.25 28.885 11.78C29.095 11.31 29.38 10.91 29.74 10.58C30.11 10.24 30.54 9.98 31.03 9.8C31.53 9.62 32.06 9.53 32.62 9.53C33.05 9.53 33.5 9.605 33.97 9.755C34.45 9.895 34.865 10.145 35.215 10.505L33.73 12.065ZM40.2313 18.185C40.0813 18.575 39.9363 18.92 39.7963 19.22C39.6563 19.52 39.4763 19.77 39.2563 19.97C39.0463 20.18 38.7763 20.335 38.4463 20.435C38.1163 20.545 37.6813 20.6 37.1413 20.6C36.5613 20.6 36.0013 20.51 35.4613 20.33L35.7613 18.485C36.1013 18.635 36.4513 18.71 36.8113 18.71C37.0613 18.71 37.2663 18.68 37.4263 18.62C37.5863 18.57 37.7163 18.49 37.8163 18.38C37.9263 18.28 38.0163 18.155 38.0863 18.005C38.1563 17.855 38.2313 17.68 38.3113 17.48L38.4763 17.06L35.2813 9.71H37.7113L39.5863 14.525H39.6163L41.2213 9.71H43.5313L40.2313 18.185ZM49.9013 8.975C49.7113 8.735 49.4513 8.56 49.1213 8.45C48.8013 8.33 48.4963 8.27 48.2063 8.27C48.0363 8.27 47.8613 8.29 47.6813 8.33C47.5013 8.37 47.3313 8.435 47.1713 8.525C47.0113 8.605 46.8813 8.715 46.7813 8.855C46.6813 8.995 46.6313 9.165 46.6313 9.365C46.6313 9.685 46.7513 9.93 46.9913 10.1C47.2313 10.27 47.5313 10.415 47.8913 10.535C48.2613 10.655 48.6563 10.775 49.0763 10.895C49.4963 11.015 49.8863 11.185 50.2463 11.405C50.6163 11.625 50.9213 11.92 51.1613 12.29C51.4013 12.66 51.5213 13.155 51.5213 13.775C51.5213 14.365 51.4113 14.88 51.1913 15.32C50.9713 15.76 50.6713 16.125 50.2913 16.415C49.9213 16.705 49.4863 16.92 48.9863 17.06C48.4963 17.2 47.9763 17.27 47.4263 17.27C46.7363 17.27 46.0963 17.165 45.5063 16.955C44.9163 16.745 44.3663 16.405 43.8563 15.935L45.5213 14.105C45.7613 14.425 46.0613 14.675 46.4213 14.855C46.7913 15.025 47.1713 15.11 47.5613 15.11C47.7513 15.11 47.9413 15.09 48.1313 15.05C48.3313 15 48.5063 14.93 48.6563 14.84C48.8163 14.75 48.9413 14.635 49.0313 14.495C49.1313 14.355 49.1813 14.19 49.1813 14C49.1813 13.68 49.0563 13.43 48.8063 13.25C48.5663 13.06 48.2613 12.9 47.8913 12.77C47.5213 12.64 47.1213 12.51 46.6913 12.38C46.2613 12.25 45.8613 12.075 45.4913 11.855C45.1213 11.635 44.8113 11.345 44.5613 10.985C44.3213 10.625 44.2013 10.15 44.2013 9.56C44.2013 8.99 44.3113 8.49 44.5313 8.06C44.7613 7.63 45.0613 7.27 45.4313 6.98C45.8113 6.69 46.2463 6.475 46.7363 6.335C47.2263 6.185 47.7313 6.11 48.2513 6.11C48.8513 6.11 49.4313 6.195 49.9913 6.365C50.5513 6.535 51.0563 6.82 51.5063 7.22L49.9013 8.975ZM57.1796 18.185C57.0296 18.575 56.8846 18.92 56.7446 19.22C56.6046 19.52 56.4246 19.77 56.2046 19.97C55.9946 20.18 55.7246 20.335 55.3946 20.435C55.0646 20.545 54.6296 20.6 54.0896 20.6C53.5096 20.6 52.9496 20.51 52.4096 20.33L52.7096 18.485C53.0496 18.635 53.3996 18.71 53.7596 18.71C54.0096 18.71 54.2146 18.68 54.3746 18.62C54.5346 18.57 54.6646 18.49 54.7646 18.38C54.8746 18.28 54.9646 18.155 55.0346 18.005C55.1046 17.855 55.1796 17.68 55.2596 17.48L55.4246 17.06L52.2296 9.71H54.6596L56.5346 14.525H56.5646L58.1696 9.71H60.4796L57.1796 18.185ZM61.3145 9.71H63.4745V10.7H63.5045C63.5745 10.56 63.6745 10.42 63.8045 10.28C63.9345 10.14 64.0895 10.015 64.2695 9.905C64.4495 9.795 64.6545 9.705 64.8845 9.635C65.1145 9.565 65.3645 9.53 65.6345 9.53C66.2045 9.53 66.6645 9.62 67.0145 9.8C67.3645 9.97 67.6345 10.21 67.8245 10.52C68.0245 10.83 68.1595 11.195 68.2295 11.615C68.2995 12.035 68.3345 12.49 68.3345 12.98V17H66.0845V13.43C66.0845 13.22 66.0745 13.005 66.0545 12.785C66.0445 12.555 65.9995 12.345 65.9195 12.155C65.8495 11.965 65.7345 11.81 65.5745 11.69C65.4245 11.57 65.2045 11.51 64.9145 11.51C64.6245 11.51 64.3895 11.565 64.2095 11.675C64.0295 11.775 63.8895 11.915 63.7895 12.095C63.6995 12.265 63.6395 12.46 63.6095 12.68C63.5795 12.9 63.5645 13.13 63.5645 13.37V17H61.3145V9.71ZM74.8628 12.065C74.7528 11.905 74.5978 11.775 74.3978 11.675C74.1978 11.565 73.9828 11.51 73.7528 11.51C73.1828 11.51 72.7378 11.68 72.4178 12.02C72.1078 12.36 71.9528 12.805 71.9528 13.355C71.9528 13.905 72.1078 14.35 72.4178 14.69C72.7378 15.03 73.1828 15.2 73.7528 15.2C74.0028 15.2 74.2178 15.145 74.3978 15.035C74.5778 14.925 74.7328 14.795 74.8628 14.645L76.3478 16.205C75.9978 16.565 75.5828 16.82 75.1028 16.97C74.6328 17.11 74.1828 17.18 73.7528 17.18C73.1928 17.18 72.6628 17.09 72.1628 16.91C71.6728 16.73 71.2428 16.475 70.8728 16.145C70.5128 15.805 70.2278 15.4 70.0178 14.93C69.8078 14.46 69.7028 13.935 69.7028 13.355C69.7028 12.775 69.8078 12.25 70.0178 11.78C70.2278 11.31 70.5128 10.91 70.8728 10.58C71.2428 10.24 71.6728 9.98 72.1628 9.8C72.6628 9.62 73.1928 9.53 73.7528 9.53C74.1828 9.53 74.6328 9.605 75.1028 9.755C75.5828 9.895 75.9978 10.145 76.3478 10.505L74.8628 12.065Z" fill="white"/>
<path fill-rule="evenodd" clip-rule="evenodd" d="M10.5398 2.62379L12.2369 0L18.9695 9.95925H12.4267L7.5141 2.70195L2.88059 9.30051L5.81701 9.32284L8.28449 5.82817L9.1442 7.13449L6.65439 10.6738H0L7.48061 0.0334947L13.2753 8.60828H16.2005L12.1811 2.73544L11.4107 3.91894L10.5398 2.62379Z" fill="white"/>
<path fill-rule="evenodd" clip-rule="evenodd" d="M7.5141 20.2982L12.4267 13.0409H18.9695L12.2369 23.0001L10.5398 20.3763L11.4107 19.0812L12.1811 20.2647L16.2005 14.3918H13.2753L7.48061 22.9666L0 12.3263H6.65439L9.1442 15.8656L8.28449 17.1719L5.81701 13.6773L2.88059 13.6996L7.5141 20.2982Z" fill="white"/>
</svg>
