<svg width="73" height="20" viewBox="0 0 73 20" fill="none" xmlns="http://www.w3.org/2000/svg">
<path d="M6.33334 8.03829L6.34125 8.03908C7.09923 8.1944 7.79472 8.5694 8.34101 9.11733C8.88848 9.6647 9.2636 10.3605 9.42005 11.1187C9.52682 11.6453 9.52655 12.1881 9.41926 12.7147C9.26395 13.4731 8.88865 14.1689 8.34021 14.7152L9.45963 15.8346C10.2259 15.0679 10.751 14.0937 10.9701 13.0321C11.1219 12.296 11.1219 11.5366 10.9701 10.8004C10.7536 9.7383 10.2284 8.7637 9.46042 7.99871C8.95619 7.49269 8.35851 7.08939 7.70055 6.81121C7.36513 6.66921 7.01639 6.561 6.6595 6.48821C6.55105 6.46604 6.4418 6.45417 6.33334 6.43833V4L3.16667 7.16667L6.33334 10.3333V8.03829ZM0.435421 14.0732C0.573171 14.3993 0.745755 14.716 0.946838 15.0153C1.14396 15.3082 1.37196 15.5837 1.62292 15.8338C2.12815 16.3392 2.72591 16.7426 3.38359 17.0221C3.72005 17.1646 4.07075 17.2731 4.42463 17.3451C4.55684 17.372 4.69221 17.3895 4.8268 17.4069V19.7375L7.99346 16.5709L4.8268 13.4042V15.803C4.79909 15.7982 4.7698 15.8006 4.74209 15.7943C3.98411 15.6389 3.28862 15.2639 2.74234 14.716C2.37427 14.3487 2.08227 13.9124 1.88306 13.4321C1.68385 12.9518 1.58135 12.4369 1.58142 11.9169C1.58149 11.3969 1.68414 10.882 1.88349 10.4018C2.08283 9.92154 2.37495 9.48532 2.74313 9.11813L1.62371 7.99792C1.11823 8.50289 0.715014 9.10072 0.436213 9.75858C0.147395 10.4414 -0.000957288 11.1753 4.64815e-06 11.9167C-0.000500135 12.6574 0.147559 13.3907 0.435421 14.0732Z" fill="#E0B36A"/>
<path d="M26.786 6.7235C26.735 6.8085 26.6783 6.87367 26.616 6.919C26.5593 6.95867 26.4885 6.9785 26.4035 6.9785C26.3072 6.9785 26.1938 6.93033 26.0635 6.834C25.9332 6.73767 25.7688 6.63283 25.5705 6.5195C25.3778 6.4005 25.1427 6.29283 24.865 6.1965C24.593 6.10017 24.2615 6.052 23.8705 6.052C23.5022 6.052 23.1763 6.103 22.893 6.205C22.6153 6.30133 22.3802 6.4345 22.1875 6.6045C22.0005 6.7745 21.8588 6.97567 21.7625 7.208C21.6662 7.43467 21.618 7.68117 21.618 7.9475C21.618 8.2875 21.7002 8.57083 21.8645 8.7975C22.0345 9.0185 22.2555 9.20833 22.5275 9.367C22.8052 9.52567 23.1168 9.6645 23.4625 9.7835C23.8138 9.89683 24.1708 10.0158 24.5335 10.1405C24.9018 10.2652 25.2588 10.4068 25.6045 10.5655C25.9558 10.7185 26.2675 10.914 26.5395 11.152C26.8172 11.39 27.0382 11.6818 27.2025 12.0275C27.3725 12.3732 27.4575 12.7982 27.4575 13.3025C27.4575 13.8352 27.3668 14.3367 27.1855 14.807C27.0042 15.2717 26.7378 15.6768 26.3865 16.0225C26.0408 16.3682 25.613 16.6402 25.103 16.8385C24.5987 17.0368 24.0235 17.136 23.3775 17.136C22.5842 17.136 21.8645 16.9943 21.2185 16.711C20.5725 16.422 20.02 16.0338 19.561 15.5465L20.037 14.7645C20.0823 14.7022 20.1362 14.6512 20.1985 14.6115C20.2665 14.5662 20.3402 14.5435 20.4195 14.5435C20.4932 14.5435 20.5753 14.5747 20.666 14.637C20.7623 14.6937 20.87 14.7673 20.989 14.858C21.108 14.9487 21.244 15.0478 21.397 15.1555C21.55 15.2632 21.7228 15.3623 21.9155 15.453C22.1138 15.5437 22.3377 15.6202 22.587 15.6825C22.8363 15.7392 23.1168 15.7675 23.4285 15.7675C23.8195 15.7675 24.168 15.7137 24.474 15.606C24.78 15.4983 25.0378 15.3482 25.2475 15.1555C25.4628 14.9572 25.6272 14.722 25.7405 14.45C25.8538 14.178 25.9105 13.8748 25.9105 13.5405C25.9105 13.1722 25.8255 12.8718 25.6555 12.6395C25.4912 12.4015 25.273 12.2032 25.001 12.0445C24.729 11.8858 24.4173 11.7527 24.066 11.645C23.7147 11.5317 23.3577 11.4183 22.995 11.305C22.6323 11.186 22.2753 11.05 21.924 10.897C21.5727 10.744 21.261 10.5457 20.989 10.302C20.717 10.0583 20.496 9.75517 20.326 9.3925C20.1617 9.02417 20.0795 8.57083 20.0795 8.0325C20.0795 7.60183 20.1617 7.18533 20.326 6.783C20.496 6.38067 20.7397 6.02367 21.057 5.712C21.38 5.40033 21.7738 5.151 22.2385 4.964C22.7088 4.777 23.2472 4.6835 23.8535 4.6835C24.5335 4.6835 25.1512 4.79117 25.7065 5.0065C26.2675 5.22183 26.7605 5.5335 27.1855 5.9415L26.786 6.7235ZM36.4097 8.3895L31.6072 19.5415C31.5562 19.6548 31.4911 19.7455 31.4117 19.8135C31.3381 19.8815 31.2219 19.9155 31.0632 19.9155H29.9412L31.5137 16.4985L27.9607 8.3895H29.2697C29.4001 8.3895 29.5021 8.4235 29.5757 8.4915C29.6551 8.55383 29.7089 8.62467 29.7372 8.704L32.0407 14.127C32.1314 14.365 32.2079 14.6143 32.2702 14.875C32.3496 14.6087 32.4346 14.3565 32.5252 14.1185L34.7607 8.704C34.7947 8.61333 34.8514 8.53967 34.9307 8.483C35.0157 8.42067 35.1092 8.3895 35.2112 8.3895H36.4097ZM39.1744 9.639C39.3614 9.42933 39.5597 9.2395 39.7694 9.0695C39.979 8.8995 40.2 8.755 40.4324 8.636C40.6704 8.51133 40.9197 8.41783 41.1804 8.3555C41.4467 8.2875 41.7329 8.2535 42.0389 8.2535C42.5092 8.2535 42.9229 8.33283 43.2799 8.4915C43.6425 8.6445 43.9429 8.8655 44.1809 9.1545C44.4245 9.43783 44.6087 9.78067 44.7334 10.183C44.858 10.5853 44.9204 11.0302 44.9204 11.5175V17H43.3989V11.5175C43.3989 10.8658 43.2487 10.3615 42.9484 10.0045C42.6537 9.64183 42.2032 9.4605 41.5969 9.4605C41.1492 9.4605 40.7299 9.56817 40.3389 9.7835C39.9535 9.99883 39.5965 10.2907 39.2679 10.659V17H37.7464V8.3895H38.6559C38.8712 8.3895 39.0044 8.49433 39.0554 8.704L39.1744 9.639ZM53.2183 9.9195C53.173 9.98183 53.1277 10.03 53.0823 10.064C53.037 10.098 52.9747 10.115 52.8953 10.115C52.8103 10.115 52.7168 10.081 52.6148 10.013C52.5128 9.93933 52.3853 9.86 52.2323 9.775C52.085 9.69 51.9008 9.6135 51.6798 9.5455C51.4645 9.47183 51.1982 9.435 50.8808 9.435C50.4558 9.435 50.0818 9.5115 49.7588 9.6645C49.4358 9.81183 49.1638 10.0272 48.9428 10.3105C48.7275 10.5938 48.5632 10.9367 48.4498 11.339C48.3422 11.7413 48.2883 12.1918 48.2883 12.6905C48.2883 13.2118 48.3478 13.6765 48.4668 14.0845C48.5858 14.4868 48.753 14.8268 48.9683 15.1045C49.1893 15.3765 49.4528 15.5862 49.7588 15.7335C50.0705 15.8752 50.419 15.946 50.8043 15.946C51.1727 15.946 51.4758 15.9035 51.7138 15.8185C51.9518 15.7278 52.1473 15.6287 52.3003 15.521C52.459 15.4133 52.5893 15.317 52.6913 15.232C52.799 15.1413 52.9038 15.096 53.0058 15.096C53.1305 15.096 53.2268 15.1442 53.2948 15.2405L53.7198 15.793C53.5328 16.0253 53.3203 16.2237 53.0823 16.388C52.8443 16.5523 52.5865 16.6912 52.3088 16.8045C52.0368 16.9122 51.7507 16.9915 51.4503 17.0425C51.15 17.0935 50.844 17.119 50.5323 17.119C49.994 17.119 49.4925 17.0198 49.0278 16.8215C48.5688 16.6232 48.1693 16.337 47.8293 15.963C47.4893 15.5833 47.223 15.1187 47.0303 14.569C46.8377 14.0193 46.7413 13.3932 46.7413 12.6905C46.7413 12.0502 46.8292 11.458 47.0048 10.914C47.1862 10.37 47.4468 9.9025 47.7868 9.5115C48.1325 9.11483 48.5547 8.806 49.0533 8.585C49.5577 8.364 50.1357 8.2535 50.7873 8.2535C51.3937 8.2535 51.9263 8.35267 52.3853 8.551C52.85 8.74367 53.2608 9.0185 53.6178 9.3755L53.2183 9.9195ZM60.9576 11.7555C60.9576 11.4042 60.9066 11.084 60.8046 10.795C60.7083 10.5003 60.5638 10.2482 60.3711 10.0385C60.1841 9.82317 59.9546 9.65883 59.6826 9.5455C59.4106 9.4265 59.1018 9.367 58.7561 9.367C58.0308 9.367 57.4556 9.5795 57.0306 10.0045C56.6113 10.4238 56.3506 11.0075 56.2486 11.7555H60.9576ZM62.1816 15.793C61.9946 16.0197 61.7708 16.218 61.5101 16.388C61.2494 16.5523 60.9689 16.6883 60.6686 16.796C60.3739 16.9037 60.0679 16.983 59.7506 17.034C59.4333 17.0907 59.1188 17.119 58.8071 17.119C58.2121 17.119 57.6624 17.0198 57.1581 16.8215C56.6594 16.6175 56.2259 16.3228 55.8576 15.9375C55.4949 15.5465 55.2116 15.0648 55.0076 14.4925C54.8036 13.9202 54.7016 13.2628 54.7016 12.5205C54.7016 11.9198 54.7923 11.3588 54.9736 10.8375C55.1606 10.3162 55.4269 9.86567 55.7726 9.486C56.1183 9.10067 56.5404 8.80033 57.0391 8.585C57.5378 8.364 58.0988 8.2535 58.7221 8.2535C59.2378 8.2535 59.7138 8.34133 60.1501 8.517C60.5921 8.687 60.9718 8.93633 61.2891 9.265C61.6121 9.588 61.8643 9.99033 62.0456 10.472C62.2269 10.948 62.3176 11.492 62.3176 12.104C62.3176 12.342 62.2921 12.5007 62.2411 12.58C62.1901 12.6593 62.0938 12.699 61.9521 12.699H56.1976C56.2146 13.243 56.2883 13.7162 56.4186 14.1185C56.5546 14.5208 56.7416 14.858 56.9796 15.13C57.2176 15.3963 57.5009 15.5975 57.8296 15.7335C58.1583 15.8638 58.5266 15.929 58.9346 15.929C59.3143 15.929 59.6401 15.8865 59.9121 15.8015C60.1898 15.7108 60.4278 15.6145 60.6261 15.5125C60.8244 15.4105 60.9888 15.317 61.1191 15.232C61.2551 15.1413 61.3713 15.096 61.4676 15.096C61.5923 15.096 61.6886 15.1442 61.7566 15.2405L62.1816 15.793ZM69.786 10.438C69.5027 10.0583 69.1967 9.79483 68.868 9.6475C68.5394 9.4945 68.171 9.418 67.763 9.418C66.964 9.418 66.3492 9.70417 65.9185 10.2765C65.4879 10.8488 65.2725 11.6648 65.2725 12.7245C65.2725 13.2855 65.3207 13.7672 65.417 14.1695C65.5134 14.5662 65.655 14.8948 65.842 15.1555C66.029 15.4105 66.2585 15.5975 66.5305 15.7165C66.8025 15.8355 67.1114 15.895 67.457 15.895C67.9557 15.895 68.3892 15.7817 68.7575 15.555C69.1315 15.3283 69.4744 15.0082 69.786 14.5945V10.438ZM71.299 4.4795V17H70.398C70.1827 17 70.0467 16.8952 69.99 16.6855L69.854 15.64C69.4857 16.082 69.0664 16.439 68.596 16.711C68.1257 16.983 67.5817 17.119 66.964 17.119C66.471 17.119 66.0234 17.0255 65.621 16.8385C65.2187 16.6458 64.8759 16.3653 64.5925 15.997C64.3092 15.6287 64.091 15.1697 63.938 14.62C63.785 14.0703 63.7085 13.4385 63.7085 12.7245C63.7085 12.0898 63.7935 11.5005 63.9635 10.9565C64.1335 10.4068 64.3772 9.93083 64.6945 9.5285C65.0119 9.12617 65.4 8.81167 65.859 8.585C66.3237 8.35267 66.845 8.2365 67.423 8.2365C67.95 8.2365 68.4005 8.32717 68.7745 8.5085C69.1542 8.68417 69.4914 8.93067 69.786 9.248V4.4795H71.299Z" fill="#E0B36A"/>
</svg>
